<svg width="69" height="92" viewBox="0 0 69 92" fill="none" xmlns="http://www.w3.org/2000/svg">
<g clip-path="url(#clip0_41_70)">
<path d="M4.24599 3.89209L0 3.02717V0.767578H14.5243V3.02717L10.7127 3.89209H4.24599ZM10.9516 0.767578L16.7885 16.9091L13.0746 23.1527L20.6055 0.767578H24.2705L15.2465 24.1635H10.9027L1.15652 0.767578H10.9516ZM20.7467 3.74613L17.0328 3.02717V0.767578H26.1058V3.02717L21.9086 3.74613H20.7521H20.7467Z" fill="white"/>
<path d="M35.9986 10.4763C37.975 9.9465 41.5477 9.03294 43.7684 8.45993V10.5736C41.45 11.2006 38.9415 11.8223 37.5406 12.498C36.1886 13.1251 34.4023 14.6603 34.4023 17.255C34.4023 19.6119 35.5099 20.7634 36.9108 20.7634C37.5406 20.7634 38.2139 20.4769 39.1804 19.7525L41.4988 18.0227L41.9332 18.6011L39.6636 21.0985C37.5406 23.4068 36.0909 24.942 32.377 24.942C28.6631 24.942 26.1058 22.6824 26.1058 18.7416C26.1058 15.0441 28.1799 12.5467 35.9986 10.4763ZM38.9415 20.4228V7.97341C38.9415 3.89209 38.3116 2.59472 35.2764 2.59472C34.0711 2.59472 32.9091 2.74068 30.6938 3.22178L34.5543 1.20545V4.22725C34.5543 8.11937 32.6756 9.60594 30.5961 9.60594C28.712 9.60594 27.4089 8.74103 26.9311 7.0112C26.9311 2.88122 30.9381 -0.00543213 38.708 -0.00543213C45.3647 -0.00543213 47.8298 2.73527 47.8298 9.31403V20.3147C47.8298 20.7958 48.1176 21.1309 48.6497 21.1309C49.0352 21.1309 49.3718 20.9363 49.9528 20.0714L51.3536 20.839C50.1971 23.7689 48.313 24.9204 44.8869 24.9204C41.4608 24.9204 39.5279 23.2878 38.9523 20.4066L38.9415 20.4228Z" fill="white"/>
<path d="M3.71388 53.2409C3.81162 51.0786 3.86048 46.1324 3.86048 43.1538V40.1753C3.86048 37.5319 3.81162 36.7156 3.71388 34.7966L1.10765 34.3641V32.3964L11.7715 29.0827L12.6402 29.6125L13.0257 34.8506V43.1646C13.0257 46.1432 13.0746 51.0894 13.1723 53.2517H3.71388V53.2409ZM14.9098 50.7921V53.2409H1.59089V50.7921L5.73914 49.8299H10.4684L14.9098 50.7921ZM27.5012 37.0994V43.1538C27.5012 46.2297 27.55 51.0786 27.6478 53.2409H18.1893C18.2871 51.0786 18.3359 46.2243 18.3359 43.1538V37.7265C18.3359 35.1804 17.7061 34.2182 16.1641 34.2182C14.7144 34.2182 12.2547 35.6129 10.6638 37.8238H8.77975V34.3641H12.3525L10.615 35.8994C14.4266 30.3261 16.745 29.0773 20.22 29.0773C24.4171 29.0773 27.5066 31.8613 27.5066 37.0994H27.5012ZM24.8949 49.8299L29.5753 50.7921V53.2409H16.2129V50.7921L20.22 49.8299H24.9004H24.8949Z" fill="white"/>
<path d="M33.8267 53.2409C33.9245 51.0786 33.9733 46.1324 33.9733 43.1538V40.8456C33.9733 38.2022 33.9245 36.7156 33.8267 34.7912L31.2205 34.3587V32.391L42.4164 29.0773L43.2852 29.6071L43.1386 36.7643V43.1538C43.1386 46.1324 43.1874 51.0786 43.2852 53.2409H33.8267ZM45.2127 50.7921V53.2409H31.7472V50.7921L35.8954 49.8299H40.5758L45.2073 50.7921H45.2127Z" fill="white"/>
<path d="M12.5968 57.3601L13.4167 57.8898L13.2266 64.5659V81.9075C13.2266 85.2698 13.2755 88.6322 13.3732 91.9945H3.90935C4.00709 88.6322 4.05595 85.2698 4.05595 81.9075V62.1604L1.44972 61.6793V59.517L12.5968 57.3547V57.3601ZM15.4908 89.5512V92H1.78636V89.5512L6.08121 88.5889H10.7616L15.4908 89.5512Z" fill="white"/>
<path d="M28.712 57.3601L29.5319 57.8898L29.3418 64.5659V81.9075C29.3418 85.2698 29.3907 88.6322 29.4884 91.9945H20.03C20.1277 88.6322 20.1766 85.2698 20.1766 81.9075V62.1604L17.5703 61.6793V59.517L28.7174 57.3547L28.712 57.3601ZM31.606 89.5512V92H17.9016V89.5512L22.1964 88.5889H26.8768L31.606 89.5512Z" fill="white"/>
<path d="M43.334 77.5397C45.3104 77.0099 48.8832 76.0963 51.1039 75.5233V77.637C48.7854 78.264 46.2769 78.8857 44.8761 79.5614C43.5241 80.1885 41.7377 81.7237 41.7377 84.3184C41.7377 86.6753 42.8508 87.8268 44.2462 87.8268C44.8761 87.8268 45.5493 87.5403 46.5158 86.8159L48.8343 85.0861L49.2687 85.6645L46.9991 88.1619C44.8761 90.4702 43.4264 92.0054 39.7125 92.0054C35.9986 92.0054 33.4412 89.7458 33.4412 85.805C33.4412 82.1075 35.5153 79.6101 43.334 77.5397ZM46.2769 87.4862V75.0422C46.2769 70.9609 45.6471 69.6635 42.6119 69.6635C41.4065 69.6635 40.25 69.8095 38.0293 70.2906L41.8898 68.2743V71.3015C41.8898 75.1936 40.0057 76.6802 37.9315 76.6802C36.0475 76.6802 34.7443 75.8152 34.2665 74.0854C34.2665 69.9554 38.2736 67.0688 46.0434 67.0688C52.7002 67.0688 55.1653 69.8095 55.1653 76.3883V87.3889C55.1653 87.87 55.453 88.2052 55.9851 88.2052C56.3706 88.2052 56.7073 88.0106 57.2882 87.1456L58.6891 87.9133C57.5326 90.8432 55.6485 91.9946 52.2224 91.9946C48.7963 91.9946 46.8633 90.362 46.2878 87.4808L46.2769 87.4862Z" fill="white"/>
<path d="M60.1225 87.87C60.1225 85.4699 62.0989 83.74 64.564 83.74C67.029 83.74 69.0054 85.4699 69.0054 87.87C69.0054 90.2701 67.029 92 64.564 92C62.0989 92 60.1225 90.2701 60.1225 87.87Z" fill="#6D44BC"/>
</g>
<defs>
<clipPath id="clip0_41_70">
<rect width="69" height="92" fill="white"/>
</clipPath>
</defs>
</svg>
