<svg width="212" height="78" viewBox="0 0 212 78" fill="none" xmlns="http://www.w3.org/2000/svg">
<g clip-path="url(#clip0_83_654)">
<path d="M7.40383 76.6303C7.40383 76.6303 7.40383 76.6768 7.27637 76.758C6.50007 77.234 4.484 78.2439 1.77274 77.9073C1.72639 77.9073 1.54101 77.8609 1.50625 77.826C1.50625 77.768 1.2861 76.758 1.05437 75.2721C0.822639 73.7861 0.567733 71.8358 0.393934 69.8972C0.0231631 66.0198 -0.0115967 62.1424 -0.0115967 62.1424C-0.0115967 62.1424 0.567733 59.6001 1.55259 57.882C2.95457 54.9682 4.2291 56.28 4.86636 58.0445C4.93588 57.9516 5.1792 59.0197 5.44569 60.0877C5.71218 61.1673 5.97868 62.2469 5.97868 62.2469C5.97868 62.2469 6.02502 65.8457 6.38421 69.4328C6.54642 71.2322 6.77815 73.02 6.9983 74.355C7.20685 75.69 7.39224 76.5839 7.40383 76.6303Z" fill="#6D44BC"/>
<path d="M7.54286 39.1682C7.54286 39.1682 7.54286 39.1914 7.39223 39.2147C6.96353 39.2959 6.2104 39.4468 5.23713 39.5629C4.26385 39.6674 3.07043 39.7487 1.77273 39.3424C1.72639 39.3307 1.55259 39.2495 1.52941 39.2147C1.52941 39.1914 1.50624 38.9012 1.55259 38.4601C1.59893 38.0189 1.65687 37.3921 1.83067 36.7071C2.1435 35.3257 2.8387 33.7237 3.64976 32.3538C4.44924 30.9724 5.35299 29.765 6.02501 28.8944C6.69704 28.0237 7.1605 27.4665 7.1605 27.4665C7.1605 27.4665 8.82897 26.4217 10.3468 26.0734C12.7221 25.2956 13.1508 26.8164 12.8263 28.2791C12.919 28.2791 12.6178 29.0569 12.305 29.8347C11.9921 30.6125 11.6909 31.3903 11.6909 31.3903C11.6909 31.3903 11.2737 31.8895 10.6944 32.6556C10.1151 33.4102 9.37354 34.4318 8.8058 35.4418C8.21488 36.4517 7.83252 37.4385 7.6819 38.1002C7.51969 38.7735 7.55444 39.145 7.55444 39.1798L7.54286 39.1682Z" fill="#6D44BC"/>
<path d="M31.4344 17.9473C31.4344 17.9473 31.4113 17.9705 31.2838 17.9009C30.5307 17.4597 28.5146 16.4265 27.1242 14.1048C27.101 14.0583 27.0199 13.8958 27.0315 13.8494C27.0663 13.8145 27.7035 13.0832 28.8274 12.1661C29.9398 11.249 31.6082 10.2042 33.4621 9.5773C35.3044 8.9272 37.2509 8.71824 38.6761 8.74146C39.3944 8.74146 39.9853 8.79951 40.3909 8.85755C40.7964 8.90399 41.0281 8.93881 41.0281 8.93881C41.0281 8.93881 41.6075 9.20582 42.3258 9.62374C42.6734 9.85591 43.0558 10.1345 43.4266 10.4364C43.7857 10.7498 44.1218 11.0981 44.3998 11.4463C45.3615 12.5492 45.3615 13.2805 45.0023 13.7565C44.6316 14.2325 43.89 14.453 43.1485 14.5343C43.1832 14.6388 42.349 14.5691 41.5379 14.6504C41.1324 14.6504 40.7385 14.7316 40.4488 14.7665C40.1591 14.8013 39.9738 14.8477 39.9738 14.8477L39.5682 14.8013C39.3133 14.7549 38.9425 14.7549 38.5023 14.7432C37.6217 14.7432 36.4746 14.8826 35.3855 15.2773C34.2963 15.6487 33.2883 16.2756 32.5931 16.8677C31.8863 17.4481 31.4692 17.9241 31.446 17.9473H31.4344Z" fill="#6D44BC"/>
<path d="M61.4321 25.2727C61.4321 25.2727 61.409 25.2727 61.3279 25.1566C61.0614 24.8083 60.5979 24.1931 60.0533 23.3804C59.5319 22.5562 58.9294 21.523 58.6629 20.1996C58.6629 20.1532 58.6398 19.9674 58.6629 19.9326L59.277 19.6308C59.6478 19.4566 60.2619 19.2477 61.0034 19.0619C61.3974 19.0039 61.8261 18.9226 62.2896 18.8994C62.7646 18.911 63.2744 18.8994 63.7726 19.0039C64.2709 19.1084 64.8038 19.2129 65.2673 19.4334C65.7655 19.6192 66.1942 19.8513 66.5998 20.1183C68.2335 21.1631 69.2183 22.3937 69.902 23.2643C70.5856 24.1466 70.9563 24.7271 70.9563 24.7271C70.9563 24.7271 71.0838 25.1914 71.1765 25.8415C71.2692 26.4916 71.3271 27.3158 71.2344 28.0588C71.1533 30.4386 69.6007 30.4154 68.3609 29.7305C68.3378 29.8234 67.7237 29.3358 67.1212 28.8714C66.5187 28.3955 65.9162 27.9659 65.9162 27.9659C65.9162 27.9659 65.6033 27.4784 65.1051 26.8631C64.63 26.2362 63.9348 25.5049 63.3903 25.1914C62.8341 24.878 62.614 24.8664 62.22 24.9476C61.8261 25.0405 61.4437 25.2495 61.4321 25.2611V25.2727Z" fill="#6D44BC"/>
<path d="M80.0286 43.7305C80.0286 43.7305 79.9939 43.6957 80.0634 43.5564C80.4342 42.7205 81.5813 40.747 84.084 39.621C84.1303 39.5978 84.3157 39.5397 84.362 39.5513C84.4084 39.5978 85.1847 40.3872 86.2507 41.6177C87.3282 42.8482 88.6607 44.5199 89.9004 46.2264C92.3915 49.6626 94.5003 53.1917 94.5003 53.1917C94.5003 53.1917 95.3693 55.8037 95.5199 57.8585C96.0182 61.2135 94.2338 60.8072 92.6349 59.507C92.6349 59.6231 91.8006 58.7756 90.9664 57.9049C90.1322 57.0343 89.2979 56.152 89.2979 56.152C89.2979 56.152 87.2703 52.797 84.9993 49.6859C83.8638 48.1303 82.6704 46.6327 81.7087 45.5531C80.7586 44.4619 80.075 43.7653 80.0402 43.7305H80.0286Z" fill="#6D44BC"/>
<path d="M108.729 77.9538C108.729 77.9538 108.682 77.9537 108.636 77.8028C108.323 76.9322 108.045 74.7381 108.879 72.1725C108.891 72.1261 108.96 71.952 108.995 71.9287C109.042 71.9287 109.841 71.9752 111.023 71.9752C112.205 71.9752 113.769 71.9171 115.345 71.7662C118.473 71.476 121.636 70.8491 121.636 70.8491C121.636 70.8491 123.814 71.0581 125.483 71.6385C128.252 72.3583 127.534 73.8674 126.12 74.9006C126.213 74.947 125.344 75.423 124.429 75.8874C123.513 76.3401 122.563 76.7813 122.563 76.7813C122.563 76.7813 119.272 77.443 115.82 77.7564C114.093 77.9189 112.344 77.9886 111.023 77.9886C109.69 77.9886 108.787 77.9421 108.74 77.9421L108.729 77.9538Z" fill="#6D44BC"/>
<path d="M138.946 61.6547C138.946 61.6547 138.923 61.7011 138.773 61.6895C137.846 61.6431 135.656 61.1671 133.698 59.2633C133.663 59.2285 133.536 59.0892 133.536 59.0427C133.559 58.9963 133.987 58.1024 134.625 56.7906C135.25 55.4788 136.061 53.7607 136.815 52.0426C138.356 48.618 139.549 45.1353 139.549 45.1353C139.549 45.1353 140.905 43.0689 142.237 41.6642C144.23 39.1915 145.238 40.5962 145.412 42.6278C145.493 42.5465 145.47 43.719 145.377 44.9031C145.284 46.0872 145.134 47.2945 145.134 47.2945L144.299 49.5931C143.778 50.9629 143.048 52.7739 142.26 54.5501C141.472 56.3262 140.65 58.0792 140.024 59.4026C139.398 60.7144 138.97 61.6083 138.946 61.6547Z" fill="#6D44BC"/>
<path d="M171.285 18.2026C171.285 18.2026 171.262 18.2374 171.111 18.2026C170.253 17.9472 168.075 17.2507 166.441 15.0682C166.407 15.0334 166.314 14.8593 166.314 14.8128C166.349 14.7664 166.94 13.8609 167.994 12.6071C169.072 11.365 170.705 9.7978 172.733 8.66013C174.737 7.48763 177.032 6.93041 178.689 6.74467C179.511 6.67501 180.206 6.60536 180.681 6.62858H181.423C181.423 6.62858 181.597 6.6634 181.886 6.75628C182.176 6.84915 182.57 6.97684 183.01 7.13937C183.891 7.49924 184.934 8.04486 185.71 8.67174C188.34 10.5872 186.741 11.574 185.003 11.9222C185.073 12.0151 184.042 12.0615 183.045 12.2357C182.049 12.375 181.11 12.6188 181.11 12.6188C181.11 12.6188 180.345 12.5955 179.256 12.7232C178.167 12.8509 176.823 13.2224 175.606 13.9422C174.39 14.6387 173.301 15.6719 172.524 16.5658C171.771 17.4713 171.308 18.1794 171.285 18.2142V18.2026Z" fill="#6D44BC"/>
<path d="M197.888 3.66852C197.864 3.42473 197.853 3.48278 197.98 2.89072C197.98 2.87911 198.003 2.63533 198.05 2.41476L198.085 2.26384L198.119 2.13615C198.166 1.95041 198.235 1.75305 198.339 1.5557C198.536 1.161 198.861 0.777909 199.208 0.534123C199.29 0.476079 199.382 0.418034 199.463 0.371599L199.591 0.301946L199.799 0.209075C200.089 0.0929861 200.483 0.000115129 200.912 0.011724C201.34 0.011724 201.792 0.139422 202.128 0.325163C202.302 0.418034 202.453 0.522514 202.58 0.615385C202.708 0.719865 202.835 0.847563 202.812 0.824345L202.962 1.01009C203.055 1.13778 203.148 1.27709 203.229 1.4164C203.322 1.60214 203.298 1.60214 203.333 1.70662C203.403 1.99684 203.368 2.11293 203.333 2.26384C203.275 2.54246 203.183 2.77463 203.055 2.9952C202.812 3.43634 202.476 3.81943 202.047 4.07483C201.618 4.33022 201.085 4.46953 200.46 4.41149C200.147 4.37666 199.811 4.2954 199.44 4.17931L198.884 3.98196C198.791 3.97035 198.687 3.9123 198.617 3.94713H198.606C198.606 3.94713 198.536 3.98196 198.675 3.92391L199.255 3.66852C199.591 3.52921 199.834 3.43634 200.112 3.27382C200.24 3.21577 200.402 3.09968 200.495 3.06486C200.576 3.03003 200.657 2.98359 200.726 2.91394C200.796 2.82107 200.854 2.84429 200.831 2.78624C200.854 2.83268 200.888 2.83268 200.981 2.84429C201.051 2.8559 201.143 2.87911 201.259 2.89072C201.317 2.89072 201.387 2.89072 201.456 2.89072C201.537 2.89072 201.676 2.89072 201.804 2.89072C202.059 2.89072 202.337 2.89072 202.638 2.8559C202.765 2.84429 202.986 2.83268 203.194 2.82107L203.692 2.78624C203.692 2.78624 203.797 2.84429 203.82 2.87911C203.901 3.50599 204.075 4.35344 204.225 5.13124L204.724 7.52266C205.071 9.12469 205.442 10.7267 205.836 12.3171L206.728 15.881L207.203 17.6456L207.528 18.7833C207.701 19.3753 207.887 19.979 208.084 20.571C208.292 21.1747 208.478 21.7667 208.814 22.4285L209.938 24.5413L211.177 26.8398L211.803 28.0007L211.954 28.2793C211.954 28.2793 211.78 28.2445 211.722 28.2329L211.282 28.1284C208.906 27.5712 206.323 26.9675 203.797 26.4103C202.765 26.1665 201.688 25.9459 200.761 25.8415C200.286 25.7834 199.822 25.6905 199.336 25.6673C197.621 25.4932 195.895 25.4119 194.168 25.4584C194.168 25.4584 192.048 25.3191 189.163 25.4932C186.278 25.6673 182.663 26.3406 179.731 27.3158C178.526 27.7918 177.495 28.1748 176.696 28.5463C175.861 28.8714 175.236 29.1848 174.749 29.3589C173.764 29.7188 173.347 29.6608 173.382 29.2545C173.428 28.8598 173.926 28.1052 174.772 27.1649C175.224 26.7237 175.757 26.2362 176.36 25.7138C176.985 25.2378 177.681 24.727 178.445 24.2394C178.26 24.2975 179.106 23.7867 180.508 23.0553C181.933 22.382 183.949 21.4997 186.081 20.9309C190.321 19.6539 194.863 19.445 194.863 19.445C196.567 19.4218 198.258 19.5262 199.95 19.6888C200.495 19.7236 201.028 19.8281 201.572 19.8861C201.653 19.8977 201.595 19.8861 201.607 19.8861L200.923 17.3786L199.996 13.6986C199.602 12.0617 199.22 10.4249 198.861 8.76481L198.339 6.26891C198.166 5.40985 198.003 4.63205 197.864 3.61047L197.888 3.66852Z" fill="#6D44BC"/>
</g>
<defs>
<clipPath id="clip0_83_654">
<rect width="212" height="78" fill="white"/>
</clipPath>
</defs>
</svg>
