<svg width="212" height="78" viewBox="0 0 212 78" fill="none" xmlns="http://www.w3.org/2000/svg">
<g clip-path="url(#clip0_932_324)">
<path d="M7.40371 76.6303C7.40371 76.6303 7.40371 76.6768 7.27625 76.758C6.49995 77.234 4.48388 78.2439 1.77262 77.9073C1.72627 77.9073 1.54089 77.8609 1.50613 77.826C1.50613 77.768 1.28598 76.758 1.05425 75.2721C0.822516 73.7861 0.567611 71.8358 0.393812 69.8972C0.0230411 66.0198 -0.0117188 62.1424 -0.0117188 62.1424C-0.0117188 62.1424 0.567611 59.6001 1.55247 57.882C2.95445 54.9682 4.22898 56.28 4.86624 58.0445C4.93576 57.9516 5.17908 59.0197 5.44557 60.0877C5.71206 61.1673 5.97855 62.2469 5.97855 62.2469C5.97855 62.2469 6.0249 65.8457 6.38408 69.4328C6.5463 71.2322 6.77803 73.02 6.99817 74.355C7.20673 75.69 7.39212 76.5839 7.40371 76.6303Z" fill="white"/>
<path d="M7.54268 39.1682C7.54268 39.1682 7.54268 39.1914 7.39205 39.2147C6.96335 39.2959 6.21022 39.4468 5.23694 39.5629C4.26367 39.6674 3.07025 39.7487 1.77255 39.3424C1.7262 39.3307 1.5524 39.2495 1.52923 39.2147C1.52923 39.1914 1.50606 38.9012 1.5524 38.4601C1.59875 38.0189 1.65668 37.3921 1.83048 36.7071C2.14332 35.3257 2.83852 33.7237 3.64958 32.3538C4.44905 30.9724 5.35281 29.765 6.02483 28.8944C6.69685 28.0237 7.16032 27.4665 7.16032 27.4665C7.16032 27.4665 8.82879 26.4217 10.3466 26.0734C12.7219 25.2956 13.1506 26.8164 12.8262 28.2791C12.9189 28.2791 12.6176 29.0569 12.3048 29.8347C11.9919 30.6125 11.6907 31.3903 11.6907 31.3903C11.6907 31.3903 11.2736 31.8895 10.6942 32.6556C10.1149 33.4102 9.37336 34.4318 8.80561 35.4418C8.2147 36.4517 7.83234 37.4385 7.68171 38.1002C7.5195 38.7735 7.55426 39.145 7.55426 39.1798L7.54268 39.1682Z" fill="white"/>
<path d="M31.4343 17.9473C31.4343 17.9473 31.4111 17.9705 31.2837 17.9009C30.5306 17.4597 28.5145 16.4265 27.1241 14.1048C27.1009 14.0583 27.0198 13.8958 27.0314 13.8494C27.0662 13.8145 27.7034 13.0832 28.8273 12.1661C29.9396 11.249 31.6081 10.2042 33.462 9.5773C35.3042 8.9272 37.2508 8.71824 38.6759 8.74146C39.3943 8.74146 39.9852 8.79951 40.3907 8.85755C40.7963 8.90399 41.028 8.93881 41.028 8.93881C41.028 8.93881 41.6073 9.20582 42.3257 9.62374C42.6733 9.85591 43.0557 10.1345 43.4264 10.4364C43.7856 10.7498 44.1216 11.0981 44.3997 11.4463C45.3614 12.5492 45.3614 13.2805 45.0022 13.7565C44.6314 14.2325 43.8899 14.453 43.1484 14.5343C43.1831 14.6388 42.3489 14.5691 41.5378 14.6504C41.1323 14.6504 40.7383 14.7316 40.4487 14.7665C40.159 14.8013 39.9736 14.8477 39.9736 14.8477L39.5681 14.8013C39.3132 14.7549 38.9424 14.7549 38.5021 14.7432C37.6215 14.7432 36.4745 14.8826 35.3853 15.2773C34.2962 15.6487 33.2882 16.2756 32.593 16.8677C31.8862 17.4481 31.4691 17.9241 31.4459 17.9473H31.4343Z" fill="white"/>
<path d="M61.4318 25.2727C61.4318 25.2727 61.4087 25.2727 61.3276 25.1566C61.0611 24.8083 60.5976 24.1931 60.053 23.3804C59.5316 22.5562 58.9291 21.523 58.6626 20.1996C58.6626 20.1532 58.6395 19.9674 58.6626 19.9326L59.2767 19.6308C59.6475 19.4566 60.2616 19.2477 61.0031 19.0619C61.3971 19.0039 61.8258 18.9226 62.2892 18.8994C62.7643 18.911 63.2741 18.8994 63.7723 19.0039C64.2706 19.1084 64.8035 19.2129 65.267 19.4334C65.7652 19.6192 66.1939 19.8513 66.5995 20.1183C68.2332 21.1631 69.218 22.3937 69.9016 23.2643C70.5853 24.1466 70.956 24.7271 70.956 24.7271C70.956 24.7271 71.0835 25.1914 71.1762 25.8415C71.2689 26.4916 71.3268 27.3158 71.2341 28.0588C71.153 30.4386 69.6004 30.4154 68.3606 29.7305C68.3375 29.8234 67.7234 29.3358 67.1209 28.8714C66.5184 28.3955 65.9159 27.9659 65.9159 27.9659C65.9159 27.9659 65.603 27.4784 65.1048 26.8631C64.6297 26.2362 63.9345 25.5049 63.39 25.1914C62.8338 24.878 62.6137 24.8664 62.2197 24.9476C61.8258 25.0405 61.4434 25.2495 61.4318 25.2611V25.2727Z" fill="white"/>
<path d="M80.0282 43.7305C80.0282 43.7305 79.9935 43.6957 80.063 43.5564C80.4338 42.7205 81.5808 40.747 84.0835 39.621C84.1299 39.5978 84.3153 39.5397 84.3616 39.5513C84.408 39.5978 85.1843 40.3872 86.2502 41.6177C87.3278 42.8482 88.6602 44.5199 89.9 46.2264C92.3911 49.6626 94.4999 53.1917 94.4999 53.1917C94.4999 53.1917 95.3689 55.8037 95.5195 57.8585C96.0177 61.2135 94.2334 60.8072 92.6344 59.507C92.6344 59.6231 91.8002 58.7756 90.966 57.9049C90.1317 57.0343 89.2975 56.152 89.2975 56.152C89.2975 56.152 87.2698 52.797 84.9989 49.6859C83.8634 48.1303 82.67 46.6327 81.7083 45.5531C80.7582 44.4619 80.0746 43.7653 80.0398 43.7305H80.0282Z" fill="white"/>
<path d="M108.728 77.9538C108.728 77.9538 108.682 77.9537 108.636 77.8028C108.323 76.9322 108.045 74.7381 108.879 72.1725C108.891 72.1261 108.96 71.952 108.995 71.9287C109.041 71.9287 109.841 71.9752 111.023 71.9752C112.204 71.9752 113.769 71.9171 115.344 71.7662C118.473 71.476 121.636 70.8491 121.636 70.8491C121.636 70.8491 123.814 71.0581 125.483 71.6385C128.252 72.3583 127.533 73.8674 126.12 74.9006C126.213 74.947 125.344 75.423 124.428 75.8874C123.513 76.3401 122.563 76.7813 122.563 76.7813C122.563 76.7813 119.272 77.443 115.819 77.7564C114.093 77.9189 112.343 77.9886 111.023 77.9886C109.69 77.9886 108.786 77.9421 108.74 77.9421L108.728 77.9538Z" fill="white"/>
<path d="M138.946 61.6547C138.946 61.6547 138.923 61.7011 138.772 61.6895C137.845 61.6431 135.656 61.1671 133.697 59.2633C133.663 59.2285 133.535 59.0892 133.535 59.0427C133.558 58.9963 133.987 58.1024 134.624 56.7906C135.25 55.4788 136.061 53.7607 136.814 52.0426C138.355 48.618 139.549 45.1353 139.549 45.1353C139.549 45.1353 140.904 43.0689 142.237 41.6642C144.23 39.1915 145.238 40.5962 145.411 42.6278C145.493 42.5465 145.469 43.719 145.377 44.9031C145.284 46.0872 145.133 47.2945 145.133 47.2945L144.299 49.5931C143.778 50.9629 143.048 52.7739 142.26 54.5501C141.472 56.3262 140.649 58.0792 140.024 59.4026C139.398 60.7144 138.969 61.6083 138.946 61.6547Z" fill="white"/>
<path d="M171.285 18.2026C171.285 18.2026 171.262 18.2374 171.111 18.2026C170.254 17.9472 168.076 17.2507 166.442 15.0682C166.407 15.0334 166.314 14.8593 166.314 14.8128C166.349 14.7664 166.94 13.8609 167.995 12.6071C169.072 11.365 170.706 9.7978 172.733 8.66013C174.738 7.48763 177.032 6.93041 178.689 6.74467C179.512 6.67501 180.207 6.60536 180.682 6.62858H181.423C181.423 6.62858 181.597 6.6634 181.887 6.75628C182.177 6.84915 182.57 6.97684 183.011 7.13937C183.891 7.49924 184.934 8.04486 185.71 8.67174C188.341 10.5872 186.742 11.574 185.004 11.9222C185.073 12.0151 184.042 12.0615 183.046 12.2357C182.049 12.375 181.111 12.6188 181.111 12.6188C181.111 12.6188 180.346 12.5955 179.257 12.7232C178.168 12.8509 176.824 13.2224 175.607 13.9422C174.39 14.6387 173.301 15.6719 172.525 16.5658C171.772 17.4713 171.308 18.1794 171.285 18.2142V18.2026Z" fill="white"/>
<path d="M197.888 3.66852C197.864 3.42473 197.853 3.48278 197.98 2.89072C197.98 2.87911 198.003 2.63533 198.05 2.41476L198.085 2.26384L198.119 2.13615C198.166 1.95041 198.235 1.75305 198.339 1.5557C198.536 1.161 198.861 0.777909 199.208 0.534123C199.29 0.476079 199.382 0.418034 199.463 0.371599L199.591 0.301946L199.799 0.209075C200.089 0.0929861 200.483 0.000115129 200.912 0.011724C201.34 0.011724 201.792 0.139422 202.128 0.325163C202.302 0.418034 202.453 0.522514 202.58 0.615385C202.708 0.719865 202.835 0.847563 202.812 0.824345L202.962 1.01009C203.055 1.13778 203.148 1.27709 203.229 1.4164C203.322 1.60214 203.298 1.60214 203.333 1.70662C203.403 1.99684 203.368 2.11293 203.333 2.26384C203.275 2.54246 203.183 2.77463 203.055 2.9952C202.812 3.43634 202.476 3.81943 202.047 4.07483C201.618 4.33022 201.085 4.46953 200.46 4.41149C200.147 4.37666 199.811 4.2954 199.44 4.17931L198.884 3.98196C198.791 3.97035 198.687 3.9123 198.617 3.94713H198.606C198.606 3.94713 198.536 3.98196 198.675 3.92391L199.255 3.66852C199.591 3.52921 199.834 3.43634 200.112 3.27382C200.24 3.21577 200.402 3.09968 200.495 3.06486C200.576 3.03003 200.657 2.98359 200.726 2.91394C200.796 2.82107 200.854 2.84429 200.831 2.78624C200.854 2.83268 200.888 2.83268 200.981 2.84429C201.051 2.8559 201.143 2.87911 201.259 2.89072C201.317 2.89072 201.387 2.89072 201.456 2.89072C201.537 2.89072 201.676 2.89072 201.804 2.89072C202.059 2.89072 202.337 2.89072 202.638 2.8559C202.765 2.84429 202.986 2.83268 203.194 2.82107L203.692 2.78624C203.692 2.78624 203.797 2.84429 203.82 2.87911C203.901 3.50599 204.075 4.35344 204.225 5.13124L204.724 7.52266C205.071 9.12469 205.442 10.7267 205.836 12.3171L206.728 15.881L207.203 17.6456L207.528 18.7833C207.701 19.3753 207.887 19.979 208.084 20.571C208.292 21.1747 208.478 21.7667 208.814 22.4285L209.938 24.5413L211.177 26.8398L211.803 28.0007L211.954 28.2793C211.954 28.2793 211.78 28.2445 211.722 28.2329L211.282 28.1284C208.906 27.5712 206.323 26.9675 203.797 26.4103C202.765 26.1665 201.688 25.9459 200.761 25.8415C200.286 25.7834 199.822 25.6905 199.336 25.6673C197.621 25.4932 195.895 25.4119 194.168 25.4584C194.168 25.4584 192.048 25.3191 189.163 25.4932C186.278 25.6673 182.663 26.3406 179.731 27.3158C178.526 27.7918 177.495 28.1748 176.696 28.5463C175.861 28.8714 175.236 29.1848 174.749 29.3589C173.764 29.7188 173.347 29.6608 173.382 29.2545C173.428 28.8598 173.926 28.1052 174.772 27.1649C175.224 26.7237 175.757 26.2362 176.36 25.7138C176.985 25.2378 177.681 24.727 178.445 24.2394C178.26 24.2975 179.106 23.7867 180.508 23.0553C181.933 22.382 183.949 21.4997 186.081 20.9309C190.321 19.6539 194.863 19.445 194.863 19.445C196.567 19.4218 198.258 19.5262 199.95 19.6888C200.495 19.7236 201.028 19.8281 201.572 19.8861C201.653 19.8977 201.595 19.8861 201.607 19.8861L200.923 17.3786L199.996 13.6986C199.602 12.0617 199.22 10.4249 198.861 8.76481L198.339 6.26891C198.166 5.40985 198.003 4.63205 197.864 3.61047L197.888 3.66852Z" fill="white"/>
</g>
<defs>
<clipPath id="clip0_932_324">
<rect width="212" height="78" fill="white"/>
</clipPath>
</defs>
</svg>
